<?xml version="1.0" encoding="UTF-8" standalone="no"?>
<!-- Created with Inkscape (http://www.inkscape.org/) -->

<svg
   width="66.145836mm"
   height="66.145836mm"
   viewBox="0 0 66.145836 66.145836"
   version="1.1"
   id="svg5"
   inkscape:version="1.1.2 (b8e25be833, 2022-02-05)"
   sodipodi:docname="poscompra_.svg"
   xmlns:inkscape="http://www.inkscape.org/namespaces/inkscape"
   xmlns:sodipodi="http://sodipodi.sourceforge.net/DTD/sodipodi-0.dtd"
   xmlns="http://www.w3.org/2000/svg"
   xmlns:svg="http://www.w3.org/2000/svg">
  <sodipodi:namedview
     id="namedview7"
     pagecolor="#ffffff"
     bordercolor="#666666"
     borderopacity="1.0"
     inkscape:pageshadow="2"
     inkscape:pageopacity="0.0"
     inkscape:pagecheckerboard="0"
     inkscape:document-units="mm"
     showgrid="false"
     inkscape:zoom="0.64052329"
     inkscape:cx="167.83152"
     inkscape:cy="249.79576"
     inkscape:window-width="1680"
     inkscape:window-height="987"
     inkscape:window-x="-8"
     inkscape:window-y="-8"
     inkscape:window-maximized="1"
     inkscape:current-layer="layer1" />
  <defs
     id="defs2" />
  <g
     inkscape:label="Camada 1"
     inkscape:groupmode="layer"
     id="layer1"
     transform="translate(-60.694817,-82.174652)">
    <g
       id="g1386"
       transform="matrix(0.13167673,0,0,0.13994902,60.996789,80.85859)"
       inkscape:export-filename="F:\Documentos\Projetos R\paulo_morais\static\images\service\negocio.png"
       inkscape:export-xdpi="23.136614"
       inkscape:export-ydpi="23.136614">
      <g
         id="g1052">
	<g
   id="g1050">
		<path
   d="m 61.408,133.532 c -13.232,0 -24,10.768 -24,24 0,13.232 10.768,24 24,24 13.232,0 24,-10.768 24,-24 0,-13.232 -10.768,-24 -24,-24 z m 0,32 c -4.408,0 -8,-3.592 -8,-8 0,-4.408 3.592,-8 8,-8 4.408,0 8,3.592 8,8 0,4.408 -3.592,8 -8,8 z"
   id="path1048" />

	</g>

</g>
      <g
         id="g1058">
	<g
   id="g1056">
		<path
   d="m 491.064,203.188 -11.312,-11.312 -114.48,114.48 c -0.432,-0.488 -0.776,-1.04 -1.24,-1.512 L 296.72,237.532 307.064,227.188 295.752,215.876 272,239.628 c -12.728,12.72 -32.432,14.48 -47.096,5.272 l 58.136,-57.68 c 0.008,-0.008 0.008,-0.016 0.016,-0.024 l 152,-152 L 423.744,23.884 277.408,170.22 267.064,159.876 c -1.496,-1.504 -3.536,-2.344 -5.656,-2.344 H 232.72 l -13.656,-13.656 -112,-112 -11.312,11.312 74.344,74.344 -102.32,102.32 -56.96,-52.216 -10.816,11.8 93.408,85.616 v 20.48 c 0,2.12 0.84,4.16 2.344,5.656 l 34.6,34.6 c -3.16,4.264 -4.944,9.368 -4.944,14.776 0,13.472 10.736,24.408 24.088,24.88 0.464,13.056 10.944,23.536 24,24 0.464,13.056 10.944,23.536 24,24 0.472,13.352 11.416,24.088 24.88,24.088 3.4,0 6.696,-0.696 9.736,-1.984 l 0.608,0.608 c 6.04,6.048 14.08,9.376 22.632,9.376 8.552,0 16.584,-3.328 22.624,-9.376 L 364.032,350.1 c 6.048,-6.048 9.376,-14.08 9.376,-22.624 0,-2.048 -0.216,-4.064 -0.592,-6.04 z M 79.584,230.676 181.408,128.844 202.096,149.532 101.168,250.46 Z m 77.136,116.232 c -1.696,1.688 -3.944,2.624 -6.344,2.624 -4.944,0 -8.968,-4.024 -8.968,-8.968 0,-2.4 0.936,-4.648 2.624,-6.344 l 38.064,-38.064 c 1.696,-1.688 3.944,-2.624 6.344,-2.624 4.944,0 8.968,4.024 8.968,8.968 0,2.4 -0.936,4.648 -2.624,6.344 z m 24,24 c -1.696,1.688 -3.944,2.624 -6.344,2.624 -4.944,0 -8.968,-4.024 -8.968,-8.968 0,-2.4 0.936,-4.648 2.624,-6.344 l 38.064,-38.064 c 1.696,-1.688 3.944,-2.624 6.344,-2.624 4.944,0 8.968,4.024 8.968,8.968 0,2.4 -0.936,4.648 -2.624,6.344 z m 24,24 c -1.696,1.688 -3.944,2.624 -6.344,2.624 -4.944,0 -8.968,-4.024 -8.968,-8.968 0,-2.4 0.936,-4.648 2.624,-6.344 l 38.064,-38.064 c 1.696,-1.688 3.944,-2.624 6.344,-2.624 4.944,0 8.968,4.024 8.968,8.968 0,2.4 -0.936,4.648 -2.624,6.344 z m 24,24 c -1.696,1.688 -3.944,2.624 -6.344,2.624 -4.944,0 -8.968,-4.024 -8.968,-8.968 0,-2.4 0.936,-4.648 2.624,-6.344 l 38.064,-38.064 c 1.696,-1.688 3.944,-2.624 6.344,-2.624 4.944,0 8.968,4.024 8.968,8.968 0,2.4 -0.936,4.648 -2.624,6.344 z m 124,-80.12 -86.056,86.056 c -5.816,5.816 -15.736,5.976 -21.864,0.616 l 33.304,-33.304 c 4.704,-4.712 7.304,-10.984 7.304,-17.656 0,-13.472 -10.736,-24.408 -24.088,-24.88 -0.464,-13.056 -10.944,-23.536 -24,-24 -0.464,-13.056 -10.944,-23.536 -24,-24 -0.472,-13.352 -11.416,-24.088 -24.88,-24.088 -6.672,0 -12.944,2.6 -17.656,7.312 l -29.376,29.376 -32,-32 v -17.376 l 104,-104 10.344,10.344 c 1.496,1.504 3.536,2.344 5.656,2.344 h 28.688 l 7.976,7.976 -58.8,58.344 c -1.512,1.504 -2.368,3.56 -2.36,5.696 0.008,2.136 0.864,4.184 2.384,5.68 21.032,20.72 55.144,20.592 76.016,-0.296 l 2.096,-2.088 67.312,67.312 c 3.024,3.024 4.688,7.04 4.688,11.32 0,4.28 -1.664,8.288 -4.688,11.312 z"
   id="path1054" />

	</g>

</g>
      <g
         id="g1064">
	<g
   id="g1062">
		<path
   d="m 55.784,349.044 -14.04,7.68 c 2.632,4.808 5.48,9.6 8.464,14.232 L 63.664,362.3 c -2.784,-4.32 -5.432,-8.776 -7.88,-13.256 z"
   id="path1060" />

	</g>

</g>
      <g
         id="g1070">
	<g
   id="g1068">
		<path
   d="m 169.936,447.98 -5.608,14.984 c 5.128,1.92 10.416,3.68 15.728,5.232 l 4.496,-15.352 c -4.936,-1.448 -9.848,-3.08 -14.616,-4.864 z"
   id="path1066" />

	</g>

</g>
      <g
         id="g1076">
	<g
   id="g1074">
		<path
   d="m 115.952,418.452 -9.608,12.8 c 4.4,3.304 8.984,6.488 13.608,9.464 l 8.656,-13.456 c -4.304,-2.776 -8.568,-5.736 -12.656,-8.808 z"
   id="path1072" />

	</g>

</g>
      <g
         id="g1082">
	<g
   id="g1080">
		<path
   d="m 141.88,435.156 -7.68,14.032 c 4.816,2.632 9.8,5.136 14.816,7.432 l 6.664,-14.544 c -4.672,-2.144 -9.312,-4.472 -13.8,-6.92 z"
   id="path1078" />

	</g>

</g>
      <g
         id="g1088">
	<g
   id="g1086">
		<path
   d="m 92.648,398.244 -11.32,11.304 c 3.888,3.896 7.968,7.696 12.12,11.296 l 10.488,-12.088 c -3.872,-3.352 -7.664,-6.896 -11.288,-10.512 z"
   id="path1084" />

	</g>

</g>
      <g
         id="g1094">
	<g
   id="g1092">
		<path
   d="m 72.448,374.948 -12.8,9.6 c 3.312,4.416 6.808,8.752 10.392,12.888 l 12.088,-10.488 c -3.328,-3.848 -6.584,-7.888 -9.68,-12 z"
   id="path1090" />

	</g>

</g>
      <g
         id="g1100">
	<g
   id="g1098">
		<path
   d="m 29.952,260.98 -15.96,1.136 c 0.384,5.48 0.976,11.016 1.752,16.464 l 15.84,-2.256 c -0.72,-5.08 -1.272,-10.24 -1.632,-15.344 z"
   id="path1096" />

	</g>

</g>
      <g
         id="g1106">
	<g
   id="g1104">
		<path
   d="m 13.992,229.004 c -0.392,5.44 -0.584,11 -0.584,16.528 v 0.024 l 16,-0.024 c 0,-5.152 0.184,-10.336 0.544,-15.392 z"
   id="path1102" />

	</g>

</g>
      <g
         id="g1112">
	<g
   id="g1110">
		<path
   d="m 34.304,291.484 -15.632,3.4 c 1.168,5.384 2.544,10.784 4.088,16.048 l 15.352,-4.496 C 36.68,301.532 35.4,296.5 34.304,291.484 Z"
   id="path1108" />

	</g>

</g>
      <g
         id="g1118">
	<g
   id="g1116">
		<path
   d="m 42.976,321.052 -14.992,5.6 c 1.92,5.136 4.048,10.28 6.336,15.28 l 14.552,-6.648 c -2.128,-4.664 -4.112,-9.448 -5.896,-14.232 z"
   id="path1114" />

	</g>

</g>
      <g
         id="g1124">
	<g
   id="g1122">
		<path
   d="m 441.944,335.276 c -2.144,4.672 -4.472,9.312 -6.928,13.8 l 14.04,7.68 c 2.632,-4.816 5.136,-9.8 7.432,-14.816 z"
   id="path1120" />

	</g>

</g>
      <g
         id="g1130">
	<g
   id="g1128">
		<path
   d="m 427.136,362.34 c -2.784,4.32 -5.752,8.576 -8.816,12.664 l 12.8,9.608 c 3.296,-4.384 6.48,-8.968 9.472,-13.608 z"
   id="path1126" />

	</g>

</g>
      <g
         id="g1136">
	<g
   id="g1134">
		<path
   d="m 408.624,387.004 c -3.352,3.872 -6.888,7.672 -10.512,11.288 l 11.304,11.32 c 3.896,-3.888 7.696,-7.968 11.296,-12.12 z"
   id="path1132" />

	</g>

</g>
      <g
         id="g1142">
	<g
   id="g1140">
		<path
   d="m 452.72,306.396 c -1.448,4.92 -3.08,9.84 -4.864,14.624 l 14.984,5.6 c 1.928,-5.144 3.68,-10.44 5.232,-15.728 z"
   id="path1138" />

	</g>

</g>
      <g
         id="g1148">
	<g
   id="g1146">
		<path
   d="m 459.24,276.284 c -0.728,5.088 -1.648,10.192 -2.728,15.176 l 15.64,3.384 c 1.16,-5.352 2.144,-10.832 2.92,-16.304 z"
   id="path1144" />

	</g>

</g>
      <g
         id="g1154">
	<g
   id="g1152">
		<path
   d="m 386.816,408.812 c -3.856,3.344 -7.896,6.6 -12.008,9.688 l 9.6,12.8 c 4.408,-3.304 8.744,-6.8 12.888,-10.392 z"
   id="path1150" />

	</g>

</g>
      <g
         id="g1160">
	<g
   id="g1158">
		<path
   d="m 199.496,456.652 -3.384,15.632 c 5.352,1.16 10.832,2.144 16.304,2.92 l 2.256,-15.832 c -5.088,-0.728 -10.192,-1.648 -15.176,-2.72 z"
   id="path1156" />

	</g>

</g>
      <g
         id="g1166">
	<g
   id="g1164">
		<path
   d="m 461.408,245.532 c 0,5.144 -0.176,10.336 -0.536,15.416 l 15.96,1.128 c 0.384,-5.464 0.576,-11.032 0.576,-16.544 z"
   id="path1162" />

	</g>

</g>
      <g
         id="g1172">
	<g
   id="g1170">
		<path
   d="m 276.184,459.356 c -5.072,0.72 -10.232,1.272 -15.344,1.632 l 1.136,15.96 c 5.48,-0.384 11.016,-0.976 16.464,-1.752 z"
   id="path1168" />

	</g>

</g>
      <g
         id="g1178">
	<g
   id="g1176">
		<path
   d="m 245.408,461.532 c -5.144,0 -10.32,-0.176 -15.4,-0.536 l -1.128,15.96 c 5.456,0.384 11.024,0.576 16.536,0.576 z"
   id="path1174" />

	</g>

</g>
      <g
         id="g1184">
	<g
   id="g1182">
		<path
   d="m 362.16,427.292 c -4.288,2.76 -8.744,5.408 -13.248,7.872 l 7.68,14.04 c 4.832,-2.648 9.616,-5.488 14.224,-8.456 z"
   id="path1180" />

	</g>

</g>
      <g
         id="g1190">
	<g
   id="g1188">
		<path
   d="m 335.144,442.068 c -4.664,2.128 -9.448,4.12 -14.224,5.896 l 5.592,14.992 c 5.136,-1.92 10.28,-4.048 15.28,-6.336 z"
   id="path1186" />

	</g>

</g>
      <g
         id="g1196">
	<g
   id="g1194">
		<path
   d="m 306.296,452.836 c -4.904,1.432 -9.928,2.712 -14.952,3.808 l 3.4,15.632 c 5.384,-1.168 10.784,-2.544 16.048,-4.088 z"
   id="path1192" />

	</g>

</g>
      <g
         id="g1202">
	<g
   id="g1200">
		<path
   d="m 338.728,33.82 -7.048,14.368 c 4.44,2.176 9.008,4.632 13.576,7.296 L 353.32,41.66 c -4.904,-2.856 -9.816,-5.496 -14.592,-7.84 z"
   id="path1198" />

	</g>

</g>
      <g
         id="g1208">
	<g
   id="g1206">
		<path
   d="m 245.408,13.532 -3.344,0.024 0.232,16 3.112,-0.024 c 4.224,0 8.352,0.096 12.384,0.288 l 0.752,-15.984 c -4.28,-0.2 -8.648,-0.304 -13.136,-0.304 z"
   id="path1204" />

	</g>

</g>
      <g
         id="g1214">
	<g
   id="g1212">
		<path
   d="m 307.68,21.716 -4.488,15.36 c 4.84,1.416 9.704,3.072 14.456,4.928 l 5.832,-14.896 c -5.192,-2.032 -10.504,-3.84 -15.8,-5.392 z"
   id="path1210" />

	</g>

</g>
      <g
         id="g1220">
	<g
   id="g1218">
		<path
   d="m 275.032,15.172 -1.856,15.888 c 5.168,0.608 10.272,1.408 15.168,2.384 l 3.12,-15.696 c -5.304,-1.056 -10.832,-1.92 -16.432,-2.576 z"
   id="path1216" />

	</g>

</g>
      <g
         id="g1226">
	<g
   id="g1224">
		<path
   d="m 161.176,29.292 c -5.128,2 -10.24,4.208 -15.2,6.568 l 6.856,14.456 c 4.624,-2.192 9.392,-4.256 14.168,-6.12 z"
   id="path1222" />

	</g>

</g>
      <g
         id="g1232">
	<g
   id="g1230">
		<path
   d="m 192.816,19.524 c -5.368,1.248 -10.752,2.696 -15.992,4.32 l 4.728,15.288 c 4.872,-1.512 9.88,-2.864 14.88,-4.024 z"
   id="path1228" />

	</g>

</g>
      <g
         id="g1238">
	<g
   id="g1236">
		<path
   d="m 225.528,14.372 c -5.496,0.472 -11.032,1.136 -16.448,1.992 l 2.496,15.808 c 5.032,-0.8 10.184,-1.424 15.304,-1.856 z"
   id="path1234" />

	</g>

</g>
      <g
         id="g1240">
</g>
      <g
         id="g1242">
</g>
      <g
         id="g1244">
</g>
      <g
         id="g1246">
</g>
      <g
         id="g1248">
</g>
      <g
         id="g1250">
</g>
      <g
         id="g1252">
</g>
      <g
         id="g1254">
</g>
      <g
         id="g1256">
</g>
      <g
         id="g1258">
</g>
      <g
         id="g1260">
</g>
      <g
         id="g1262">
</g>
      <g
         id="g1264">
</g>
      <g
         id="g1266">
</g>
      <g
         id="g1268">
</g>
    </g>
  </g>
</svg>
