<?xml version="1.0" encoding="UTF-8" standalone="no"?>
<!-- Created with Inkscape (http://www.inkscape.org/) -->

<svg
   width="66.145836mm"
   height="66.145836mm"
   viewBox="0 0 66.145836 66.145836"
   version="1.1"
   id="svg5"
   inkscape:version="1.1.2 (b8e25be833, 2022-02-05)"
   sodipodi:docname="poscompra_.svg"
   inkscape:export-filename="F:\Documentos\Projetos R\paulo_morais\static\images\service\poscompra.png"
   inkscape:export-xdpi="23.136614"
   inkscape:export-ydpi="23.136614"
   xmlns:inkscape="http://www.inkscape.org/namespaces/inkscape"
   xmlns:sodipodi="http://sodipodi.sourceforge.net/DTD/sodipodi-0.dtd"
   xmlns="http://www.w3.org/2000/svg"
   xmlns:svg="http://www.w3.org/2000/svg">
  <sodipodi:namedview
     id="namedview7"
     pagecolor="#ffffff"
     bordercolor="#666666"
     borderopacity="1.0"
     inkscape:pageshadow="2"
     inkscape:pageopacity="0.0"
     inkscape:pagecheckerboard="0"
     inkscape:document-units="mm"
     showgrid="false"
     inkscape:zoom="0.64052329"
     inkscape:cx="167.83152"
     inkscape:cy="249.79576"
     inkscape:window-width="1680"
     inkscape:window-height="987"
     inkscape:window-x="-8"
     inkscape:window-y="-8"
     inkscape:window-maximized="1"
     inkscape:current-layer="layer1" />
  <defs
     id="defs2" />
  <g
     inkscape:label="Camada 1"
     inkscape:groupmode="layer"
     id="layer1"
     transform="translate(-60.694817,-82.174652)">
    <g
       id="g1801"
       transform="matrix(2.1286096,0,0,1.9684592,59.682961,83.724219)">
      <g
         id="g1732">
	<g
   id="g1730">
		<path
   d="M 9.26,6.904 H 23.947 V 8.657 H 25.92 V 6.346 c 0,-0.781 -0.633,-1.415 -1.415,-1.415 H 8.702 c -0.781,0 -1.415,0.633 -1.415,1.415 V 27.15 c 0,0.681 0.552,1.231 1.232,1.231 h 3.7 V 26.41 H 9.26 Z"
   id="path1700" />

		<path
   d="m 10.938,10.412 c 0,0.539 0.438,0.984 0.979,0.984 h 0.303 v -1.97 h -0.303 c -0.542,0 -0.979,0.445 -0.979,0.986 z"
   id="path1702" />

		<path
   d="m 10.938,14.521 c 0,0.539 0.438,0.93 0.979,0.93 H 12.22 V 13.59 h -0.303 c -0.542,0 -0.979,0.39 -0.979,0.931 z"
   id="path1704" />

		<path
   d="m 10.938,18.631 c 0,0.539 0.438,0.986 0.979,0.986 h 0.303 v -1.973 h -0.303 c -0.542,0.001 -0.979,0.446 -0.979,0.987 z"
   id="path1706" />

		<path
   d="m 10.938,22.686 c 0,0.539 0.438,0.986 0.979,0.986 h 0.303 v -1.973 h -0.303 c -0.542,0 -0.979,0.446 -0.979,0.987 z"
   id="path1708" />

		<path
   d="m 2.904,1.973 h 14.685 v 1.753 h 1.973 V 1.415 C 19.562,0.633 18.927,0 18.146,0 H 2.163 C 1.483,0 0.931,0.552 0.931,1.232 v 20.987 c 0,0.682 0.552,1.232 1.232,1.232 h 3.701 v -1.973 h -2.96 z"
   id="path1710" />

		<path
   d="m 4.583,5.48 c 0,0.539 0.438,0.986 0.978,0.986 H 5.865 V 4.494 H 5.56 c -0.539,0 -0.977,0.445 -0.977,0.986 z"
   id="path1712" />

		<path
   d="m 4.583,9.59 c 0,0.539 0.438,0.932 0.978,0.932 H 5.865 V 8.658 H 5.56 c -0.539,0 -0.977,0.391 -0.977,0.932 z"
   id="path1714" />

		<path
   d="m 4.583,13.699 c 0,0.539 0.438,0.986 0.978,0.986 H 5.865 V 12.712 H 5.56 c -0.539,10e-4 -0.977,0.446 -0.977,0.987 z"
   id="path1716" />

		<path
   d="m 4.583,17.754 c 0,0.539 0.438,0.986 0.978,0.986 H 5.865 V 16.767 H 5.56 c -0.539,0.001 -0.977,0.446 -0.977,0.987 z"
   id="path1718" />

		<path
   d="M 26.507,11.279 C 25.882,10.653 25.034,10.301 24.15,10.301 h -8.873 c -0.781,0 -1.415,0.633 -1.415,1.415 v 18.87 c 0,0.781 0.633,1.415 1.415,1.415 h 14.376 c 0.781,0 1.416,-0.634 1.416,-1.415 V 17.229 c 0,-0.884 -0.351,-1.73 -0.975,-2.354 z m -0.261,2.494 v 0.006 l 1.271,1.258 -1.271,-0.002 z m 2.85,3.219 V 30.027 H 15.836 V 12.273 h 8.478 l -0.012,3.333 c -0.001,0.366 0.145,0.717 0.4,0.976 0.259,0.259 0.609,0.405 0.976,0.406 z"
   id="path1720" />

		<path
   d="m 18.174,16.438 h 2.711 c 0.54,0 0.978,-0.445 0.978,-0.986 0,-0.539 -0.438,-0.984 -0.978,-0.984 h -2.711 c -0.54,0 -0.978,0.445 -0.978,0.984 10e-4,0.54 0.438,0.986 0.978,0.986 z"
   id="path1722" />

		<path
   d="m 26.814,18.191 h -8.64 c -0.54,0 -0.978,0.447 -0.978,0.985 0,0.541 0.438,0.986 0.978,0.986 h 8.64 c 0.541,0 0.979,-0.445 0.979,-0.986 -10e-4,-0.537 -0.438,-0.985 -0.979,-0.985 z"
   id="path1724" />

		<path
   d="m 26.814,21.918 h -8.64 c -0.54,0 -0.978,0.447 -0.978,0.986 0,0.539 0.438,0.986 0.978,0.986 h 8.64 c 0.541,0 0.979,-0.447 0.979,-0.986 0,-0.539 -0.438,-0.986 -0.979,-0.986 z"
   id="path1726" />

		<path
   d="m 26.814,25.645 h -8.64 c -0.54,0 -0.978,0.445 -0.978,0.986 0,0.539 0.438,0.984 0.978,0.984 h 8.64 c 0.541,0 0.979,-0.445 0.979,-0.984 -10e-4,-0.541 -0.438,-0.986 -0.979,-0.986 z"
   id="path1728" />

	</g>

</g>
      <g
         id="g1734">
</g>
      <g
         id="g1736">
</g>
      <g
         id="g1738">
</g>
      <g
         id="g1740">
</g>
      <g
         id="g1742">
</g>
      <g
         id="g1744">
</g>
      <g
         id="g1746">
</g>
      <g
         id="g1748">
</g>
      <g
         id="g1750">
</g>
      <g
         id="g1752">
</g>
      <g
         id="g1754">
</g>
      <g
         id="g1756">
</g>
      <g
         id="g1758">
</g>
      <g
         id="g1760">
</g>
      <g
         id="g1762">
</g>
    </g>
  </g>
</svg>
