<?xml version="1.0" encoding="UTF-8" standalone="no"?>
<!-- Created with Inkscape (http://www.inkscape.org/) -->

<svg
   width="66.145836mm"
   height="66.145836mm"
   viewBox="0 0 66.145836 66.145836"
   version="1.1"
   id="svg5"
   inkscape:version="1.1.2 (b8e25be833, 2022-02-05)"
   sodipodi:docname="search.svg"
   xmlns:inkscape="http://www.inkscape.org/namespaces/inkscape"
   xmlns:sodipodi="http://sodipodi.sourceforge.net/DTD/sodipodi-0.dtd"
   xmlns="http://www.w3.org/2000/svg"
   xmlns:svg="http://www.w3.org/2000/svg">
  <sodipodi:namedview
     id="namedview7"
     pagecolor="#ffffff"
     bordercolor="#666666"
     borderopacity="1.0"
     inkscape:pageshadow="2"
     inkscape:pageopacity="0.0"
     inkscape:pagecheckerboard="0"
     inkscape:document-units="mm"
     showgrid="false"
     inkscape:zoom="0.64052329"
     inkscape:cx="167.83152"
     inkscape:cy="249.79576"
     inkscape:window-width="1680"
     inkscape:window-height="987"
     inkscape:window-x="-8"
     inkscape:window-y="-8"
     inkscape:window-maximized="1"
     inkscape:current-layer="layer1" />
  <defs
     id="defs2" />
  <g
     inkscape:label="Camada 1"
     inkscape:groupmode="layer"
     id="layer1"
     transform="translate(-60.694817,-82.174652)">
    <g
       id="g154"
       transform="matrix(0.33168635,0,0,0.34173249,61.484917,81.975366)"
       inkscape:export-filename="F:\Documentos\Projetos R\paulo_morais\static\images\service\search.png"
       inkscape:export-xdpi="23.136614"
       inkscape:export-ydpi="23.136614"
       style="fill:#214478">
      <path
         d="m 158.662,80.16 c 0,3.891 -2.963,7.09 -6.755,7.464 v 27.856 c 0,4.143 -3.358,7.5 -7.5,7.5 h -53.88 c -4.142,0 -7.5,-3.357 -7.5,-7.5 V 87.621 c -2.749,-0.281 -5.147,-2.062 -6.194,-4.664 -1.142,-2.841 -0.442,-6.091 1.768,-8.21 l 33.674,-32.292 c 2.901,-2.783 7.48,-2.783 10.382,0 l 33.355,31.985 c 1.621,1.375 2.65,3.428 2.65,5.72 z m 14.193,58.624 c -14.925,14.476 -34.593,22.447 -55.379,22.447 -0.001,0 -0.001,0 -0.002,0 -17.168,0 -33.429,-5.384 -46.961,-15.332 l -48.31,46.854 c -1.4,1.358 -3.274,2.116 -5.222,2.116 -0.038,0 -0.077,0 -0.115,-0.001 -1.989,-0.03 -3.884,-0.85 -5.269,-2.277 l -9.481,-9.776 c -2.883,-2.974 -2.811,-7.722 0.163,-10.605 L 50.816,125.137 C 42.191,111.97 37.674,96.544 37.92,80.457 38.245,59.209 46.825,39.359 62.08,24.564 77.005,10.088 96.672,2.117 117.46,2.117 c 21.717,0 42.001,8.584 57.117,24.17 30.54,31.49 29.767,81.956 -1.722,112.497 z M 163.809,36.73 c -12.266,-12.647 -28.727,-19.613 -46.35,-19.613 -16.867,0 -32.826,6.469 -44.937,18.215 -12.378,12.004 -19.34,28.112 -19.604,45.354 -0.264,17.242 6.203,33.555 18.208,45.933 12.265,12.646 28.726,19.612 46.349,19.612 16.867,0.001 32.826,-6.468 44.938,-18.215 25.551,-24.782 26.178,-65.733 1.396,-91.286 z"
         id="path101"
         style="fill:#214478" />
      <g
         id="g103"
         style="fill:#214478">
</g>
      <g
         id="g105"
         style="fill:#214478">
</g>
      <g
         id="g107"
         style="fill:#214478">
</g>
      <g
         id="g109"
         style="fill:#214478">
</g>
      <g
         id="g111"
         style="fill:#214478">
</g>
      <g
         id="g113"
         style="fill:#214478">
</g>
      <g
         id="g115"
         style="fill:#214478">
</g>
      <g
         id="g117"
         style="fill:#214478">
</g>
      <g
         id="g119"
         style="fill:#214478">
</g>
      <g
         id="g121"
         style="fill:#214478">
</g>
      <g
         id="g123"
         style="fill:#214478">
</g>
      <g
         id="g125"
         style="fill:#214478">
</g>
      <g
         id="g127"
         style="fill:#214478">
</g>
      <g
         id="g129"
         style="fill:#214478">
</g>
      <g
         id="g131"
         style="fill:#214478">
</g>
    </g>
  </g>
</svg>
